<?xml version="1.0" encoding="utf-8"?>
<!-- Generator: Adobe Illustrator 26.4.0, SVG Export Plug-In . SVG Version: 6.00 Build 0)  -->
<svg version="1.1" xmlns="http://www.w3.org/2000/svg" xmlns:xlink="http://www.w3.org/1999/xlink" x="0px" y="0px"
	 viewBox="0 0 1000 1000" style="enable-background:new 0 0 1000 1000;" xml:space="preserve">
<style type="text/css">
	.st0{fill:#CDCDCD;}
</style>
<g id="Ebene_2">
	<path class="st0" d="M433.7,542.6L401.2,481l88.8-37h50l74.7,12.4c0,0,58.6,24.7,69.9,45.6s41.8,47.5,17.6,93.7
		C678,642,676,704.6,654.9,720.2c-21.2,15.5-59,72.6-66.8,107.1c-7.8,34.5-10.7,123.3-10.7,123.3l-216.7-11.1
		c0,0,32.9-86.2,18.2-126.3s-51-111-53-152.3s-16.3-76.2-16.3-76.2L396,495"/>
</g>
<g id="Ebene_1">
	<g>
		<path d="M539,547.9c-3.8,0.9-8.2,0.8-11.1,2.9c-7.6,5.4-16.5,4.9-24.9,5.8c-7,0.8-14.2,0-21.3-0.5c-6.8-0.5-11.6,3.9-16.8,6.7
			c-9.5,5-18.7,10.8-27.7,16.6c-10.7,6.9-21.3,14.2-31.9,21.3c-1.1,0.7-2.1,1.9-3.3,2.1c-2.1,0.4-4.2,0.2-6.3,0.2
			c0.9-2.1,1.2-4.9,2.8-6.1c5-3.9,10.3-7.3,15.6-10.6c12.4-7.8,24.7-15.6,37.2-23.2c2.7-1.6,6-2.2,8.5-4.1c1.7-1.3,2.8-3.9,3.1-6
			c0.1-0.8-2.7-2.1-4.3-3c-4.2-2.5-8.8-4.5-12.6-7.5c-5.8-4.6-7.1-4.7-12.3,0.2c-2.4,2.2-5.3,4-8.3,5.4c-8.1,3.9-16.1,7.9-24.2,11.8
			c-9.1,4.4-18.3,8.7-27.8,12.4c-15.1,6-31,9.7-46.6,14.3c-8,2.3-8.7,3.5-7,11.6c2.9,14.3,5,28.8,8.5,42.9
			c3.8,15.6,8.5,31,13.3,46.4c4.4,14.4,9.2,28.8,14.3,43c3.9,10.9,8.4,21.7,12.7,32.4c6.4,16.2,11.1,32.7,10.3,50.3
			c-1.1,22.9-1.5,45.8-3.1,68.7c-1.2,18.3-3.7,36.6-5.7,54.9c-0.2,1.7-1.6,4.7-2.6,4.7c-2.3,0.2-5-0.7-6.8-2c-1.2-0.9-2-3.8-1.5-5.1
			c6-13.7,6.1-28.3,7.1-42.8c1.1-16,3.4-32,4.4-48c0.9-16.2,2.6-32.6-0.6-48.6c-4-19.8-11.6-38.4-19.1-57c-4-10-7.5-20.2-10.8-30.5
			c-5-15.5-9.8-31-14.2-46.6c-3.7-13.2-7.3-26.5-9.9-40c-2.4-12-4.5-24.1-6.4-36.3c-0.8-5.5-1.6-11-2.4-16.6
			c-2.2-16.1-3.4-32.3-5-48.4c-1.7-16.2-3.5-32.3-4.9-48.5c-0.7-8.1,0.4-16.4-0.7-24.4c-2.8-20.2-2.6-40.4-2.7-60.7
			c-0.1-24.1-0.7-48.3-0.6-72.4c0-11.5,0.5-23.1,1.9-34.6c1.4-11.8,5.5-22.6,13.3-32.2c8.8-10.9,20.8-11.4,31.7-2.7
			c10.9,8.8,12.8,20.3,13.8,32.6c2,25.3,3.7,50.6,5.8,75.9c1.2,14.5,2.8,29,4.4,43.5c1.1,10.3,2.7,20.5,3.8,30.7
			c0.3,2.4-0.7,5-0.5,7.4c0.1,1.2,1.3,2.7,2.4,3.2c0.8,0.3,2.8-0.6,3.3-1.4c0.6-1,0.6-3.1-0.1-3.8c-3-3-3-6-2-10
			c1-3.6,0.6-7.6,0.4-11.4c-1.2-17-2.7-34-3.9-51c-1-13.5-1.8-27.1-2.6-40.7c-1.3-20-2.8-40-3.8-60.1c-0.6-12.6-0.4-25.1-0.9-37.7
			c-0.4-10.1-2-20.2-2.2-30.3c-0.3-18.3-2.4-36.6,1.4-55c2-9.9,6.1-17.9,13.4-24.7c18-16.8,44.6-2,49.3,16.8
			c4.8,19.1,5.8,38.6,6.9,58.1c1.3,23.2,3.5,46.3,5,69.5c1,14.9,1.3,29.9,2.2,44.8c1.1,17.2,2.6,34.4,3.8,51.6
			c1.2,18.4,2.2,36.8,3.5,55.1c0.2,2.8,1.4,5.6,2.3,8.3c0.1,0.3,2.9,0,3-0.2c0.5-2.8,0.9-5.7,0.8-8.6c-0.2-6.6-0.6-13.3-1.1-19.9
			c-1.7-24.5-3.7-48.9-5.2-73.4c-1.1-18.2-1.7-36.5-2.7-54.7c-0.6-10.4-1.7-20.8-2.5-31.2c-1.1-13.9-2.1-27.8-3.1-41.7
			c-1.6-22.3-3.3-44.7-4.8-67c-0.9-13.2-2.7-26.5,0-39.5c1.7-7.9,7-14.7,13.4-19.8c5.6-4.4,11.8-7.7,19.2-9
			c10.8-1.9,19.3,2.5,26.7,9.1c11,9.9,14.6,23.3,16.4,37.5c1.1,9.1,2.5,18.2,3.1,27.4c0.4,5.9-0.7,11.9-0.3,17.8
			c1.3,23.2,3,46.3,4.3,69.5c0.7,12.4,0.6,24.9,1.2,37.4c1.2,24.2,2.5,48.4,4,72.6c1.5,24.5,3.3,49,4.9,73.5
			c0.2,3.8-0.6,7.7-0.1,11.4c0.3,2.1,2.4,4,3.7,6c1.1-1.9,3.3-3.9,3.2-5.7c-1.4-24.5-3.2-48.9-4.7-73.4c-0.6-10.2-0.5-20.5-1.1-30.7
			c-1.3-21.4-2.7-42.7-4.2-64.1c-1-15.5-2.6-31-3.2-46.6c-0.6-15.7-0.4-31.5-0.6-47.3c0-2.3,0.1-4.7,0.3-7
			c0.6-6.5,2.9-12.3,8.1-16.5c3.6-2.9,7.3-5.8,11-8.6c1-0.8,2.4-1.7,3.5-1.7c11.3,0.4,22.1,1.5,30.7,10.9
			c12.7,13.8,15.3,31,18.3,48.1c2.2,12.9,2.9,26,4.3,39c1.5,14.7,2.9,29.4,4.6,44c2.3,19.7,5,39.5,7.4,59.2
			c1.3,10.7,2.2,21.4,3.4,32.1c2.7,23.2,5.4,46.4,8.4,69.6c1.2,8.8,3.5,17.5,5.1,26.3c0.6,3.1,0.8,6.2,1,9.4
			c0.4,7.9,3.1,10.8,10.3,13.2c9.6,3.2,19.7,5.8,28.3,10.8c22.3,13.2,39,31.1,46.2,57.2c5,18.2,6.3,36.4,4.5,54.7
			c-1.2,11.9-4.4,23.8-7.9,35.3c-4.6,14.9-9.5,29.8-15.9,43.9c-6.2,13.7-14.1,26.7-22.2,39.4c-7.8,12.2-16.7,23.6-25.3,35.3
			c-3.8,5.2-8.3,9.9-12,15.2c-13.1,18.9-22.3,39.6-28.6,61.6c-4.2,14.8-8.4,29.8-11.2,44.9c-3.3,17.7-5.1,35.7-7.5,53.6
			c-0.7,5.1-1.5,10.2-1.9,15.3c-0.3,4.2,0,8.5-0.2,12.8c-0.1,2.5-0.2,5.5-1.5,7.4c-1,1.3-4.2,1.9-6,1.5c-1-0.2-1.9-3.4-1.8-5.2
			c0.6-9.8,1.2-19.5,2.4-29.2c1.8-14.3,4.2-28.5,6.4-42.7c1.5-10,2.8-20,5-29.9c2.1-9.5,5-18.9,8.2-28.2
			c4.6-13.1,8.6-26.6,15.1-38.8c7.8-14.8,17.1-28.8,27.1-42.3c16-21.7,33.7-42.3,44.4-67.2c7.5-17.6,12.6-36.3,19.2-54.3
			c5.4-14.9,7.4-30.3,7.2-46c-0.1-11.9-1.8-23.7-5.3-35.3c-3.4-11.1-7.3-21.7-14.6-30.9c-7.4-9.3-16.5-16.7-27.5-20.9
			c-16.4-6.4-33-12.3-49.9-17.1c-12.2-3.5-25-5.3-37.6-6.8c-8.7-1.1-17,2-24.7,6.4c-10.9,6.4-22,12.5-32.8,18.9
			c-6.1,3.6-12,7.7-18,11.6c-12.6,8.4-27.2,11.2-41.4,15.2c-2.9,0.8-5.8,1.8-8.3,3.3c-5.6,3.4-7,10.1-3.1,15.1
			c9.2,11.6,20.7,18.8,35.8,21.4c18.3,3.1,35.3-0.9,52.5-5.7c11.8-3.3,23.9-6,34-13.6c5.4-4.1,10.3-8.7,15.6-12.9
			c2.2-1.7,4.8-3.1,7.3-4.2c0.3-0.1,2.4,2.1,2.2,2.6c-1.2,2.8-2.3,6.5-4.6,7.7c-10.1,5.4-9.7,9.3,0.7,15.2
			c11.7,6.6,23.1,13.7,34.8,20.4c2.8,1.6,6.1,2.4,9.1,3.8c3.1,1.4,5,3.7,3.1,7.2c-1.9,3.5-4.4,2.3-7.1,0.7
			c-11.9-7-23.9-13.8-35.7-20.9c-5-3-9.6-6.5-14.2-10.1c-4.7-3.6-7.5-4.2-11.9-0.1c-10.6,10-21.1,20.2-31,30.9
			c-7,7.5-13.8,15.4-19.6,23.8c-9.7,14.1-17.7,29.1-22.4,45.9c-2.7,9.5-4.8,18.9-4.2,28.9c0.2,2.9-0.8,6-4.7,5.6
			c-3.8-0.5-4.6-3.3-4.2-6.7c3.8-30.7,14.9-58.4,33.8-82.8c7.5-9.7,16.1-18.5,24.2-27.8c2-2.3,3.6-4.9,5.3-7.4
			C539.8,549.1,539.4,548.5,539,547.9z M348.2,318.8c0.4,0,0.7-0.1,1.1-0.1c-0.1-2.3-0.1-4.7-0.3-7c-1.3-13.5-3.4-27-3.8-40.6
			c-0.3-8.7-4.2-15.2-9.9-20.4c-7.9-7.1-12-6.3-18.4-0.9c-8.8,7.4-12.9,17.2-13.9,28.3c-0.9,10.1-1.7,20.2-1.8,30.3
			c-0.4,22-0.9,44-0.3,65.9c0.7,27,2.2,54.1,3.9,81.1c1.2,19.2,3.1,38.3,4.9,57.4c1.3,14.4,3.1,28.7,4.5,43
			c0.6,5.9,0.8,11.9,1.1,17.9c0.4,6.5,2.2,7.9,8.6,6.2c7.1-1.9,14.2-3.6,21.1-5.9c14.3-4.9,28.8-9.3,42.6-15.4
			c14.9-6.5,29-14.6,43.5-22c4.5-2.3,5.7-6.1,2.5-10.3c-3.6-4.9-3-9,0.7-12.9c2.9-3.1,5.9-6.8,9.7-8.2c9.7-3.7,19.7-6.5,29.8-9.2
			c12.3-3.3,22-10.1,29.5-20.1c3.8-5,6.8-10.6,10.3-15.9c1.3-1.9,2.6-5.5,5.4-3.3c1.3,1,0.7,4.7,0.8,7.1c0,0.7-1,1.3-1.3,2.1
			c-0.5,1.4-0.8,2.8-1.1,4.2c1.5-0.2,3.3,0.1,4.5-0.6c7.7-4.4,15.1-9.5,23.1-13.6c6-3,12.5-6.2,19-6.9c15.5-1.7,30.1,3.4,44.6,7.9
			c1.9,0.6,4.7,0.3,6.3-0.7c1-0.6,1-3.6,0.6-5.3c-1.1-4.5-3.5-8.8-4.1-13.3c-2.9-20.8-5.7-41.7-8.1-62.6
			c-3.5-30.1-6.8-60.3-10.2-90.4c-1.9-16.9-4.1-33.9-5.9-50.8c-1.8-16-3.2-32-5-47.9c-1.8-16-3.7-31.9-10.4-46.9
			c-5.2-11.8-16-19.8-28-19.3c-9.7,0.4-19,9.7-19.3,19.4c-0.2,7.5-0.5,15-0.4,22.5c0.2,11,0.6,21.9,1,32.9c0.6,13.8,1.1,27.5,2,41.3
			c1.1,16.7,2.7,33.4,3.6,50.1c0.8,14.1,0,28.4,1.9,42.3c3.5,26.1,3.9,52.3,4.4,78.5c0.2,7.3,1.8,8.9,9.1,9.3
			c8.9,0.4,17.9,1.2,26.8,1.8c0.7,0,1.5,0.1,1.9,0.5c1.4,1.4,2.6,3,3.9,4.6c-1.7,1.1-3.3,2.9-5,3c-3.4,0.2-6.9-0.7-10.4-0.9
			c-12.4-0.8-24.9-0.6-37.1-2.5c-10.6-1.6-20.8,0.9-31.2,0.7c-12.4-0.2-24.9,0.8-37.3,1.9c-6.8,0.6-13.6,2.2-20.4,3.4
			c-1.9,0.4-3.8,1.3-5.8,1.5c-20,2.3-38.8,8.8-57.5,15.6c-9.3,3.4-17.7,8.2-25.3,14.7c-2.3,1.9-5.5,3.4-7.9,0.1
			c-2.6-3.7,0.7-5.4,3.2-7c4-2.4,8.2-4.4,12.2-6.9c3.7-2.2,6.5-4.8,5.7-10c-1.9-11.9-3.7-23.8-5-35.8c-1.4-11.9-2-23.8-3.3-35.7
			C351.9,349.8,350,334.3,348.2,318.8z M514,364.3c-0.1,0-0.1,0-0.2,0c0-3.5,0.2-7,0-10.5c-1.5-19.7-3.3-39.3-4.7-59
			c-1-13.7-1.2-27.5-2.1-41.3c-1.1-18-2.6-36.1-3.7-54.1c-0.7-11.8-0.8-23.6-1.5-35.3c-1.1-17.5-2.2-35.1-3.7-52.6
			c-1.1-12.1-0.6-24.3-6-35.9c-4.8-10.1-12.3-16-22.5-17.6c-9.2-1.4-17.3,2.7-24,9.6c-6.6,6.8-8,15.1-7.7,23.9
			c0.6,16.7,1.4,33.5,2.2,50.2c0.4,8,0.7,15.9,1.3,23.9c1.1,14.9,2.6,29.7,3.6,44.6c0.7,10.3,0.6,20.6,1.2,30.9
			c1.4,21.8,3.1,43.7,4.6,65.5c0.8,11.8,0.9,23.6,1.7,35.3c1.4,21.3,3.5,42.7,4.3,64c0.5,13.5,0.2,12.8,14.3,11.7
			c0.2,0,0.3-0.1,0.5-0.2c12.1-0.6,24.1-1.4,36.2-1.8c5.5-0.1,8.5-2.9,8.2-8.6C515.2,392.9,514.6,378.6,514,364.3z M423,213.7
			c0.3,0,0.6,0,0.9-0.1c-1.4-16.2-2.1-32.5-4.3-48.5c-1.6-12-1-24.4-6-36.1c-3.9-9-10.4-13.8-19.1-15.7c-8.4-1.9-16.5,0.2-21.6,7.8
			c-4.2,6.2-7.1,13.2-7.2,21c0,8.6,0.1,17.2,0,25.8c-0.6,35.1,2.5,70,5,104.9c1.8,24.3,2.7,48.7,4.1,73c0.6,10.4,1.4,20.9,1.9,31.3
			c0.8,16.7,1.6,33.5,1.9,50.2c0.1,6.3,1.4,7.9,7.5,6.3c14.9-3.8,29.9-7.7,44.8-11.6c4.7-1.2,6.3-4.2,5.6-8.9
			c-0.6-3.7-0.9-7.5-1.2-11.3c-1.1-16.5-2.1-33.1-3.2-49.6c-0.9-13.4-2.1-26.8-3-40.2c-0.9-13.4-1.4-26.8-2.3-40.3
			C425.7,252.5,424.3,233.1,423,213.7z"/>
		<path class="st0" d="M348.2,318.8c1.8,15.5,3.7,30.9,5.4,46.4c1.3,11.9,1.9,23.8,3.3,35.7c1.4,12,3.1,23.9,5,35.8
			c0.9,5.2-2,7.8-5.7,10c-4,2.4-8.2,4.4-12.2,6.9c-2.5,1.5-5.8,3.3-3.2,7c2.4,3.3,5.6,1.8,7.9-0.1c7.6-6.4,16-11.3,25.3-14.7
			c18.7-6.9,37.5-13.3,57.5-15.6c2-0.2,3.8-1.2,5.8-1.5c6.8-1.2,13.6-2.8,20.4-3.4c12.4-1,24.9-2,37.3-1.9
			c10.4,0.1,20.6-2.3,31.2-0.7c12.2,1.9,24.7,1.7,37.1,2.5c3.5,0.2,6.9,1.1,10.4,0.9c1.7-0.1,3.4-2,5-3c-1.3-1.5-2.5-3.1-3.9-4.6
			c-0.4-0.4-1.2-0.5-1.9-0.5c-8.9-0.6-17.8-1.4-26.8-1.8c-7.3-0.3-9-1.9-9.1-9.3c-0.5-26.2-0.9-52.4-4.4-78.5
			c-1.9-13.9-1-28.2-1.9-42.3c-1-16.7-2.6-33.4-3.6-50.1c-0.9-13.7-1.4-27.5-2-41.3c-0.5-11-0.9-21.9-1-32.9
			c-0.1-7.5,0.1-15,0.4-22.5c0.3-9.7,9.6-19,19.3-19.4c12-0.5,22.8,7.4,28,19.3c6.6,15,8.6,30.9,10.4,46.9c1.8,16,3.2,32,5,47.9
			c1.9,17,4,33.9,5.9,50.8c3.4,30.1,6.6,60.3,10.2,90.4c2.5,20.9,5.2,41.7,8.1,62.6c0.6,4.5,3,8.8,4.1,13.3c0.4,1.7,0.4,4.7-0.6,5.3
			c-1.7,1-4.4,1.3-6.3,0.7c-14.6-4.5-29.2-9.6-44.6-7.9c-6.5,0.7-13,3.9-19,6.9c-7.9,4-15.3,9.1-23.1,13.6c-1.2,0.7-3,0.4-4.5,0.6
			c0.4-1.4,0.6-2.8,1.1-4.2c0.3-0.8,1.3-1.4,1.3-2.1c0-2.5,0.5-6.1-0.8-7.1c-2.8-2.2-4.1,1.3-5.4,3.3c-3.5,5.3-6.5,10.9-10.3,15.9
			c-7.5,9.9-17.2,16.8-29.5,20.1c-10,2.7-20.1,5.5-29.8,9.2c-3.7,1.4-6.7,5.1-9.7,8.2c-3.7,3.9-4.4,8.1-0.7,12.9
			c3.2,4.3,1.9,8-2.5,10.3c-14.4,7.4-28.6,15.5-43.5,22c-13.8,6-28.3,10.5-42.6,15.4c-6.9,2.3-14,4.1-21.1,5.9
			c-6.4,1.7-8.2,0.3-8.6-6.2c-0.4-6-0.6-11.9-1.1-17.9c-1.4-14.4-3.2-28.7-4.5-43c-1.8-19.1-3.7-38.3-4.9-57.4
			c-1.7-27-3.2-54-3.9-81.1c-0.6-22,0-44,0.3-65.9c0.2-10.1,0.9-20.2,1.8-30.3c1-11.1,5.1-20.9,13.9-28.3c6.4-5.4,10.5-6.2,18.4,0.9
			c5.8,5.2,9.6,11.6,9.9,20.4c0.5,13.6,2.5,27.1,3.8,40.6c0.2,2.3,0.2,4.6,0.3,7C348.9,318.8,348.6,318.8,348.2,318.8z"/>
		<path class="st0" d="M514,364.3c0.6,14.3,1.2,28.5,2,42.8c0.3,5.6-2.7,8.4-8.2,8.6c-12.1,0.3-24.1,1.1-36.2,1.8
			c-0.2,0-0.3,0.1-0.5,0.2c-14.1,1.2-13.7,1.9-14.3-11.7c-0.8-21.4-2.9-42.7-4.3-64c-0.8-11.8-0.9-23.6-1.7-35.3
			c-1.4-21.8-3.2-43.7-4.6-65.5c-0.7-10.3-0.5-20.6-1.2-30.9c-1-14.9-2.5-29.7-3.6-44.6c-0.6-7.9-1-15.9-1.3-23.9
			c-0.8-16.7-1.6-33.5-2.2-50.2c-0.3-8.8,1.1-17.1,7.7-23.9c6.7-6.9,14.8-11,24-9.6c10.2,1.6,17.7,7.4,22.5,17.6
			c5.5,11.7,5,23.9,6,35.9c1.6,17.5,2.7,35.1,3.7,52.6c0.7,11.8,0.8,23.6,1.5,35.3c1.1,18,2.6,36.1,3.7,54.1
			c0.8,13.8,1.1,27.5,2.1,41.3c1.4,19.7,3.2,39.3,4.7,59c0.3,3.5,0,7,0,10.5C513.9,364.3,513.9,364.3,514,364.3z"/>
		<path class="st0" d="M423,213.7c1.3,19.4,2.6,38.7,3.9,58.1c0.8,13.4,1.4,26.8,2.3,40.3c0.9,13.4,2.1,26.8,3,40.2
			c1.1,16.5,2.1,33.1,3.2,49.6c0.3,3.8,0.6,7.6,1.2,11.3c0.8,4.7-0.9,7.7-5.6,8.9c-14.9,3.9-29.8,7.8-44.8,11.6
			c-6.1,1.6-7.4,0-7.5-6.3c-0.4-16.7-1.2-33.5-1.9-50.2c-0.5-10.4-1.3-20.9-1.9-31.3c-1.4-24.3-2.3-48.7-4.1-73
			c-2.5-34.9-5.6-69.8-5-104.9c0.1-8.6,0-17.2,0-25.8c0-7.8,3-14.7,7.2-21c5.1-7.7,13.2-9.7,21.6-7.8c8.7,1.9,15.2,6.7,19.1,15.7
			c5,11.7,4.4,24.1,6,36.1c2.1,16.1,2.9,32.3,4.3,48.5C423.6,213.7,423.3,213.7,423,213.7z"/>
	</g>
</g>
</svg>
