<?xml version="1.0" encoding="utf-8"?>
<!-- Generator: Adobe Illustrator 27.0.1, SVG Export Plug-In . SVG Version: 6.00 Build 0)  -->
<svg version="1.1" id="Ebene_1" xmlns="http://www.w3.org/2000/svg" x="0px" y="0px"
	 viewBox="0 0 221.6 408.8" style="enable-background:new 0 0 221.6 408.8;" xml:space="preserve">
<style type="text/css">
	.st0{fill:#CC0000;}
	.st1{fill:#FFFFFF;}
</style>
<g>
	<path class="st0" d="M186.8,352.7c-15.4,28.2-45.2,44.1-80.3,44.1c-50.7,0-94.5-56.5-94.5-124.6V117.6c0-10.8,7.9-19.3,17.6-19.3
		c9.7,0,17.6,8.5,17.6,19.3V196c0,1.6,0.7,3,1.9,4c0.9,0.7,2.2,1.1,3.5,1.1c3.2,0,5.5-2.1,5.5-5.1V52.5c0-10.8,7.9-19.3,17.6-19.3
		c9.7,0,17.6,8.5,17.6,19.3v125.3c0,2.7,2.4,4.7,5.7,4.7c0.9,0,2.2-0.2,3.4-1c1.2-0.9,1.9-2.2,1.9-3.8V31.2
		c0-10.8,7.9-19.3,17.6-19.3c9.7,0,17.6,8.5,17.6,19.3v146.2c0,3.8,2.9,5.8,5.6,5.8c1.4,0,2.7-0.5,3.6-1.4c1.1-1.1,1.8-2.6,1.8-4.4
		V52.4c0-10.8,7.9-19.3,17.6-19.3c9.7,0,17.6,8.5,17.6,19.3l-1.3,168.5L147,195c-1.2-0.8-2.7-1-4-0.4l-58.5,24.9
		c-12.6,4-20,18.6-16.5,32.6c1.7,6.8,5.7,12.5,11.2,16.1c5.6,3.5,12,4.4,18.2,2.5c0.2-0.1,0.4-0.2,0.7-0.3l12.8-6.4
		c-2,3-3.9,6.3-5.6,9.8c-7.4,16.1-8.5,35.3-3.1,57.1c0.7,2.7,3.1,4.2,5.5,3.5c2.4-0.7,3.8-3.5,3.1-6.1c-9.6-38.9,4.6-59.1,22.2-74.7
		l32.2,19.7c0.9,0.6,2,0.7,2.9,0.5c1.3-0.3,2.5-1.1,3.2-2.5c1.2-2.4,0.4-5.5-1.8-6.8l-34.3-21c-0.3-0.2-0.7-0.3-1-0.4
		c-1.1-0.5-2.4-0.6-3.6,0l-36,18c-3.8,1-7.6,0.5-11-1.7c-3.5-2.2-6-5.7-7-10c-2.2-8.8,2.5-18,10.4-20.4c0.1,0,0.3-0.1,0.4-0.2
		l56.6-24.1l0,0l0,0l0,0l33.6,23.2l0,0l24.6,17c0,0,0.1,0.1,0.2,0.1c6.9,4.5,7.3,12.2,7,20.3C208,296.9,204.5,320.1,186.8,352.7z"/>
	<path class="st1" d="M122,12c9.7,0,17.6,8.5,17.6,19.3v146.2c0,3.8,2.9,5.8,5.6,5.8c1.4,0,2.7-0.5,3.6-1.4c1.1-1.1,1.8-2.6,1.8-4.4
		V52.4c0-10.8,7.9-19.3,17.6-19.3c9.7,0,17.6,8.5,17.6,19.3l-1.3,168.5L147,195c-0.7-0.5-1.5-0.8-2.4-0.8c-0.5,0-1.1,0.1-1.6,0.3
		l-58.5,24.9c-12.6,4-20,18.6-16.5,32.6c1.7,6.8,5.7,12.5,11.2,16.1c3.7,2.3,7.7,3.5,11.8,3.5c2.1,0,4.3-0.3,6.4-1
		c0.2-0.1,0.4-0.2,0.7-0.3l12.8-6.4c-2,3-3.9,6.3-5.6,9.8c-7.4,16.1-8.5,35.3-3.1,57.1c0.5,2.2,2.4,3.7,4.3,3.7
		c0.4,0,0.8-0.1,1.2-0.2c2.4-0.7,3.8-3.5,3.1-6.1c-9.6-38.9,4.6-59.1,22.2-74.7l32.2,19.7c0.7,0.4,1.4,0.6,2.2,0.6
		c0.3,0,0.5,0,0.8-0.1c1.3-0.3,2.5-1.1,3.2-2.5c1.2-2.4,0.4-5.5-1.8-6.8l-34.3-21c-0.3-0.2-0.7-0.3-1-0.4c-0.6-0.3-1.2-0.4-1.8-0.4
		c-0.6,0-1.2,0.1-1.8,0.4l-36,18c-1.2,0.3-2.4,0.5-3.7,0.5c-2.6,0-5.1-0.7-7.3-2.2c-3.5-2.2-6-5.7-7-10c-2.2-8.8,2.5-18,10.4-20.4
		c0.1,0,0.3-0.1,0.4-0.2l56.6-24.1l0,0l0,0l0,0l33.6,23.2l0,0l24.6,17c0,0,0.1,0.1,0.2,0.1c6.9,4.5,7.3,12.2,7,20.3
		c-1.5,31.4-4.9,54.7-22.6,87.3c-15.4,28.2-45.2,44.1-80.3,44.1c-50.7,0-94.5-56.5-94.5-124.6V117.6c0-10.8,7.9-19.3,17.6-19.3
		c9.7,0,17.6,8.5,17.6,19.3V196c0,1.6,0.7,3,1.9,4c0.9,0.7,2.2,1.1,3.5,1.1c3.2,0,5.5-2.1,5.5-5.1V52.5c0-10.8,7.9-19.3,17.6-19.3
		c9.7,0,17.6,8.5,17.6,19.3v125.3c0,2.7,2.4,4.7,5.7,4.7c0.9,0,2.2-0.2,3.4-1c1.2-0.9,1.9-2.2,1.9-3.8V31.2
		C104.4,20.4,112.3,12,122,12 M110.8,264.1L110.8,264.1 M122,0c-8.1,0-15.7,3.4-21.3,9.5c-4.4,4.8-7.1,10.8-8,17.3
		c-4.9-3.6-10.7-5.5-16.9-5.5c-8.1,0-15.7,3.4-21.3,9.5c-5.4,5.8-8.3,13.6-8.3,21.8v39.2c-4.8-3.4-10.6-5.3-16.6-5.3
		c-8.1,0-15.7,3.4-21.3,9.5C3,101.7,0,109.4,0,117.6v154.6c0,35.4,10.9,69.2,30.7,95.2c9.8,12.8,21.1,22.9,33.7,30
		c13.4,7.6,27.6,11.4,42.1,11.4c19.3,0,37.8-4.5,53.3-12.9c16-8.7,29-21.6,37.5-37.4c18.2-33.4,22.5-58.3,24.1-92.5
		c0.3-7.2,1-22.2-12.4-30.9l-13.6-9.4c0.6-1.5,1-3.1,1-4.7l1.3-168.5c0,0,0-0.1,0-0.1c0-8.2-3-16-8.3-21.8
		c-5.6-6.1-13.2-9.5-21.3-9.5c-6.1,0-12,1.9-16.9,5.5c-0.9-6.5-3.7-12.5-8-17.2C137.7,3.3,130.1,0,122,0L122,0z"/>
</g>
</svg>
